<svg width="320" height="512" xmlns="http://www.w3.org/2000/svg">
 <!--! Font Awesome Pro 6.2.0 by @fontawesome - https://fontawesome.com License - https://fontawesome.com/license (Commercial License) Copyright 2022 Fonticons, Inc. -->

 <g>
  <title>Layer 1</title>
  <path fill="#4358bc" stroke="#22335b" d="m208,48c0,26.5 -21.5,48 -48,48s-48,-21.5 -48,-48s21.5,-48 48,-48s48,21.5 48,48zm-56,304l0,128c0,17.7 -14.3,32 -32,32s-32,-14.3 -32,-32l0,-223.1l-28.6,47.6c-9.1,15.1 -28.8,20 -43.9,10.9s-20,-28.8 -10.9,-43.9l58.3,-97c17.4,-28.9 48.6,-46.6 82.3,-46.6l29.7,0c33.7,0 64.9,17.7 82.3,46.6l58.3,97c9.1,15.1 4.2,34.8 -10.9,43.9s-34.8,4.2 -43.9,-10.9l-28.7,-47.6l0,223.1c0,17.7 -14.3,32 -32,32s-32,-14.3 -32,-32l0,-128l-16,0z" id="svg_1"/>
 </g>
</svg>