<svg width="576" height="512" xmlns="http://www.w3.org/2000/svg">
 <!--! Font Awesome Pro 6.2.0 by @fontawesome - https://fontawesome.com License - https://fontawesome.com/license (Commercial License) Copyright 2022 Fonticons, Inc. -->

 <g>
  <title>Layer 1</title>
  <path fill="#db9111" id="svg_1" d="m316.9,18c-5.3,-11 -16.5,-18 -28.8,-18s-23.4,7 -28.8,18l-64.3,132.3l-143.6,21.2c-12,1.8 -22,10.2 -25.7,21.7s-0.7,24.2 7.9,32.7l104.2,103.1l-24.6,145.7c-2,12 3,24.2 12.9,31.3s23,8 33.8,2.3l128.3,-68.5l128.3,68.5c10.8,5.7 23.9,4.9 33.8,-2.3s14.9,-19.3 12.9,-31.3l-24.7,-145.7l104.2,-103.1c8.6,-8.5 11.7,-21.2 7.9,-32.7s-13.7,-19.9 -25.7,-21.7l-143.7,-21.2l-64.3,-132.3z"/>
 </g>
</svg>