<svg width="576" height="512" xmlns="http://www.w3.org/2000/svg">
 <!--! Font Awesome Pro 6.2.0 by @fontawesome - https://fontawesome.com License - https://fontawesome.com/license (Commercial License) Copyright 2022 Fonticons, Inc. -->

 <g>
  <title>Layer 1</title>
  <path fill="#32c192" id="svg_1" d="m547.6,103.8l-57.3,-90.7c-5.1,-8.1 -14.2,-13.1 -23.9,-13.1l-356.8,0c-9.7,0 -18.8,5 -23.9,13.1l-57.4,90.7c-29.6,46.8 -3.4,111.9 51.9,119.4c4,0.5 8.1,0.8 12.1,0.8c26.1,0 49.3,-11.4 65.2,-29c15.9,17.6 39.1,29 65.2,29c26.1,0 49.3,-11.4 65.2,-29c15.9,17.6 39.1,29 65.2,29c26.2,0 49.3,-11.4 65.2,-29c16,17.6 39.1,29 65.2,29c4.1,0 8.1,-0.3 12.1,-0.8c55.5,-7.4 81.8,-72.5 52.1,-119.4l-0.1,0zm-47.9,151.1l-0.1,0c-5.3,0.7 -10.7,1.1 -16.2,1.1c-12.4,0 -24.3,-1.9 -35.4,-5.3l0,133.3l-320,0l0,-133.4c-11.2,3.5 -23.2,5.4 -35.6,5.4c-5.5,0 -11,-0.4 -16.3,-1.1l-0.1,0c-4.1,-0.6 -8.1,-1.3 -12,-2.3l0,131.4l0,64c0,35.3 28.7,64 64,64l320,0c35.3,0 64,-28.7 64,-64l0,-64l0,-131.4c-4,1 -8,1.8 -12.3,2.3z"/>
 </g>
</svg>