<svg width="512" height="512" xmlns="http://www.w3.org/2000/svg">
 <!--! Font Awesome Pro 6.2.0 by @fontawesome - https://fontawesome.com License - https://fontawesome.com/license (Commercial License) Copyright 2022 Fonticons, Inc. -->

 <g>
  <title>Layer 1</title>
  <path fill="#bd4770" id="svg_1" d="m448,256c0,-106 -86,-192 -192,-192s-192,86 -192,192s86,192 192,192s192,-86 192,-192zm64,0c0,141.4 -114.6,256 -256,256s-256,-114.6 -256,-256s114.6,-256 256,-256s256,114.6 256,256zm-256,80c44.2,0 80,-35.8 80,-80s-35.8,-80 -80,-80s-80,35.8 -80,80s35.8,80 80,80zm0,64c-79.5,0 -144,-64.5 -144,-144s64.5,-144 144,-144s144,64.5 144,144s-64.5,144 -144,144zm32,-144c0,17.7 -14.3,32 -32,32s-32,-14.3 -32,-32s14.3,-32 32,-32s32,14.3 32,32z"/>
 </g>
</svg>